<svg width="125" height="52" viewBox="0 0 125 52" fill="none" xmlns="http://www.w3.org/2000/svg">
<path d="M22.5349 33.0356C25.6141 38.3689 33.3121 38.3689 36.3913 33.0356L42.0167 23.2921H58.0765C58.0765 30.8809 55.0619 38.1588 49.6958 43.5249C44.3298 48.8909 37.0518 51.9056 29.4631 51.9056C21.8743 51.9056 14.5964 48.8909 9.23029 43.5249C3.86423 38.1588 0.849609 30.8809 0.849609 23.2921L16.9095 23.2921L22.5349 33.0356Z" fill="#2E2F2F"/>
<path d="M17.5059 8.10073C17.5059 12.4095 14.0129 15.9025 9.70412 15.9025C5.39532 15.9025 1.90234 12.4095 1.90234 8.10073C1.90234 3.79193 5.39532 0.29895 9.70412 0.29895C14.0129 0.29895 17.5059 3.79193 17.5059 8.10073Z" fill="#2E2F2F"/>
<path fill-rule="evenodd" clip-rule="evenodd" d="M44.408 0.29895C43.3394 0.29895 42.4732 1.16521 42.4732 2.23379V13.9677C42.4732 15.0363 43.3394 15.9025 44.408 15.9025H56.1419C57.2105 15.9025 58.0767 15.0363 58.0767 13.9677V2.23379C58.0767 1.16521 57.2105 0.29895 56.1419 0.29895H44.408ZM50.2749 1.85931C46.8279 1.85931 44.0335 4.65369 44.0335 8.10073C44.0335 11.5478 46.8279 14.3422 50.2749 14.3422C53.722 14.3422 56.5164 11.5478 56.5164 8.10073C56.5164 4.65369 53.722 1.85931 50.2749 1.85931Z" fill="#2E2F2F"/>
<path d="M58.0762 40.1317C58.0762 38.1244 58.3907 36.3868 59.0199 34.9188C59.679 33.4508 60.5478 32.2375 61.6263 31.2788C62.7348 30.3201 63.993 29.6161 65.4011 29.1667C66.8391 28.6874 68.3371 28.4477 69.8949 28.4477C71.4228 28.4477 72.8908 28.6874 74.2989 29.1667C75.7369 29.6161 76.9952 30.3201 78.0737 31.2788C79.1522 32.2375 80.021 33.4508 80.6801 34.9188C81.3392 36.3868 81.6688 38.1244 81.6688 40.1317C81.6688 42.1389 81.3392 43.8915 80.6801 45.3894C80.021 46.8574 79.1522 48.0708 78.0737 49.0294C76.9952 49.9881 75.7369 50.7071 74.2989 51.1865C72.8908 51.6658 71.4228 51.9055 69.8949 51.9055C68.3371 51.9055 66.8391 51.6658 65.4011 51.1865C63.993 50.7071 62.7348 49.9881 61.6263 49.0294C60.5478 48.0708 59.679 46.8574 59.0199 45.3894C58.3907 43.8915 58.0762 42.1389 58.0762 40.1317ZM69.8949 46.6028C71.273 46.6028 72.4115 46.1085 73.3102 45.1198C74.239 44.1312 74.7033 42.4685 74.7033 40.1317C74.7033 38.9633 74.5685 37.9746 74.2989 37.1657C74.0592 36.3269 73.7147 35.6678 73.2653 35.1885C72.8459 34.6792 72.3366 34.3197 71.7374 34.1099C71.1682 33.8703 70.554 33.7504 69.8949 33.7504C69.2358 33.7504 68.6067 33.8703 68.0075 34.1099C67.4083 34.3197 66.8841 34.6792 66.4347 35.1885C66.0153 35.6678 65.6707 36.3269 65.4011 37.1657C65.1614 37.9746 65.0416 38.9633 65.0416 40.1317C65.0416 42.4685 65.491 44.1312 66.3897 45.1198C67.3185 46.1085 68.4869 46.6028 69.8949 46.6028Z" fill="#2E2F2F"/>
<path d="M83.3424 29.0769H87.0273V23.5045H93.8579V29.0769H98.7112V34.2897H93.8579V43.2773C93.8579 44.3259 94.0526 45.015 94.4421 45.3445C94.8615 45.6441 95.6255 45.7939 96.734 45.7939H98.7112V51.3662H94.3972C93.0191 51.3662 91.8656 51.2913 90.9369 51.1415C90.0082 50.9618 89.2442 50.6472 88.6451 50.1978C88.0759 49.7485 87.6564 49.1193 87.3868 48.3104C87.1471 47.4716 87.0273 46.3931 87.0273 45.0749V34.2897H83.3424V29.0769Z" fill="#2E2F2F"/>
<path d="M100.864 40.0867C100.864 38.3192 101.179 36.7164 101.808 35.2783C102.437 33.8403 103.291 32.612 104.369 31.5934C105.478 30.5748 106.751 29.7959 108.189 29.2566C109.657 28.7174 111.2 28.4477 112.818 28.4477C114.645 28.4477 116.293 28.7922 117.761 29.4813C119.229 30.1404 120.457 31.0691 121.446 32.2675C122.434 33.4359 123.168 34.8439 123.648 36.4917C124.157 38.1394 124.352 39.9519 124.232 41.9292H107.74C107.8 42.7081 107.979 43.3972 108.279 43.9964C108.608 44.5656 108.998 45.0449 109.447 45.4344C109.927 45.8238 110.466 46.1234 111.065 46.3331C111.664 46.5129 112.278 46.6028 112.908 46.6028C113.956 46.6028 114.855 46.453 115.604 46.1534C116.383 45.8538 116.982 45.4494 117.401 44.9401L122.839 46.9173C121.67 48.625 120.202 49.8833 118.435 50.6922C116.697 51.501 114.915 51.9055 113.087 51.9055C111.29 51.9055 109.642 51.6359 108.144 51.0966C106.646 50.5573 105.358 49.7784 104.279 48.7598C103.201 47.7412 102.362 46.4979 101.763 45.0299C101.164 43.562 100.864 41.9142 100.864 40.0867ZM107.74 37.8848H117.896C117.836 36.4467 117.341 35.3682 116.413 34.6492C115.484 33.9002 114.346 33.5257 112.997 33.5257C111.709 33.5257 110.556 33.8703 109.537 34.5593C108.549 35.2484 107.949 36.3569 107.74 37.8848Z" fill="#2E2F2F"/>
</svg>
