<svg width="936" height="740" viewBox="0 0 936 740" fill="none" xmlns="http://www.w3.org/2000/svg">
<path d="M701.046 505.788H467.379V272.156C596.363 272.156 701.046 376.823 701.046 505.788Z" fill="#F08A4B"/>
<path d="M934.71 505.788H701.043C701.043 376.823 805.726 272.156 934.71 272.156V505.788Z" fill="#F487B6"/>
<path d="M701.046 505.788H467.379V739.42H701.046V505.788Z" fill="#2B00FF"/>
<path d="M934.71 505.788H701.043V739.42H934.71V505.788Z" fill="#FFF3F0"/>
<path d="M467.379 739.42C467.379 610.455 572.062 505.788 701.046 505.788C701.046 634.94 596.363 739.42 467.379 739.42Z" fill="#F487B6"/>
<path d="M700.859 505.788H935.087C935.087 570.27 882.746 622.604 818.254 622.604H817.693C753.201 622.604 700.859 570.27 700.859 505.788Z" fill="#2E2F2F"/>
<path d="M817.879 563.542C785.913 563.542 759.93 537.562 759.93 505.601C759.93 473.64 785.913 447.66 817.879 447.66C849.845 447.66 875.828 473.64 875.828 505.601C875.828 537.562 849.845 563.542 817.879 563.542Z" stroke="#FDFDFF" stroke-width="10" stroke-miterlimit="10"/>
<path d="M665.152 455.697C657.3 451.586 650.758 445.231 646.645 437.194L642.533 429.344L638.42 437.194C634.308 445.044 627.952 451.586 619.914 455.697L612.062 459.809L619.914 463.921C627.765 468.033 634.308 474.388 638.42 482.425L642.533 490.275L646.645 482.425C650.758 474.575 657.113 468.033 665.152 463.921L673.003 459.809L665.152 455.697Z" fill="#2E2F2F"/>
<path d="M898.261 676.993C890.41 672.881 883.867 666.527 879.755 658.49L875.642 650.64L871.529 658.49C867.417 666.34 861.061 672.881 853.023 676.993L845.172 681.105L853.023 685.217C860.874 689.329 867.417 695.684 871.529 703.721L875.642 711.571L879.755 703.721C883.867 695.871 890.223 689.329 898.261 685.217L906.112 681.105L898.261 676.993Z" fill="#F487B6"/>
<path d="M233.713 505.788C104.729 505.788 0.046875 401.121 0.046875 272.156H233.713V505.788Z" fill="#F08A4B"/>
<path d="M467.378 272.156H233.711V505.788H467.378V272.156Z" fill="#FF99EC"/>
<path d="M116.88 739.42C52.3882 739.42 0.046875 687.086 0.046875 622.604C0.046875 558.122 52.3882 505.788 116.88 505.788C181.372 505.788 233.713 558.122 233.713 622.604C233.713 687.086 181.372 739.42 116.88 739.42Z" fill="#2B00FF"/>
<path d="M350.544 739.42H233.711V505.788H350.544C415.036 505.788 467.378 558.122 467.378 622.604C467.378 687.086 415.036 739.42 350.544 739.42Z" fill="#F487B6"/>
<path d="M116.832 739.56L116.832 505.929H-0.0012207L-0.0012207 739.56H116.832Z" fill="#2E2F2F"/>
<path d="M116.879 680.544C84.9134 680.544 58.9297 654.565 58.9297 622.604C58.9297 590.643 84.9134 564.663 116.879 564.663C148.845 564.663 174.828 590.643 174.828 622.604C174.828 654.565 148.845 680.544 116.879 680.544Z" stroke="#FDFDFF" stroke-width="10" stroke-miterlimit="10"/>
<path d="M467.378 505.788C338.394 505.788 233.711 401.121 233.711 272.156C362.695 272.156 467.378 376.823 467.378 505.788Z" fill="#FDFDFF"/>
<path d="M350.547 680.731C318.581 680.731 292.598 654.751 292.598 622.79C292.598 590.829 318.581 564.85 350.547 564.85C382.513 564.85 408.496 590.829 408.496 622.79C408.496 654.938 382.513 680.731 350.547 680.731Z" stroke="#FDFDFF" stroke-width="10" stroke-miterlimit="10"/>
<path d="M80.9874 317.948C73.1362 313.836 66.5936 307.482 62.4811 299.445L58.3685 291.595L54.256 299.445C50.1434 307.295 43.7877 313.836 35.7495 317.948L27.8984 322.06L35.7495 326.172C43.6007 330.284 50.1434 336.639 54.256 344.676L58.3685 352.526L62.4811 344.676C66.5936 336.826 72.9493 330.284 80.9874 326.172L88.8386 322.06L80.9874 317.948Z" fill="white"/>
<path d="M261.775 56.0626C261.334 62.1698 259.073 66.9775 254.993 70.4859C250.939 73.9942 245.585 75.7484 238.932 75.7484C231.656 75.7484 225.925 73.3055 221.741 68.4198C217.583 63.5081 215.504 56.7773 215.504 48.2273V44.7579C215.504 39.3005 216.466 34.4928 218.389 30.3347C220.312 26.1767 223.054 22.9932 226.614 20.7842C230.2 18.5493 234.358 17.4318 239.088 17.4318C245.637 17.4318 250.913 19.186 254.915 22.6943C258.917 26.2027 261.23 31.1274 261.853 37.4684H250.159C249.873 33.8041 248.847 31.1533 247.079 29.5161C245.338 27.8529 242.674 27.0213 239.088 27.0213C235.19 27.0213 232.266 28.4246 230.317 31.2313C228.394 34.012 227.407 38.339 227.355 44.2122V48.5002C227.355 54.6333 228.277 59.1162 230.122 61.9489C231.993 64.7815 234.93 66.1979 238.932 66.1979C242.544 66.1979 245.234 65.3793 247.001 63.742C248.795 62.0788 249.821 59.519 250.081 56.0626H261.775ZM293.156 74.9688C292.636 73.9552 292.259 72.6948 292.025 71.1875C289.297 74.2281 285.749 75.7484 281.383 75.7484C277.251 75.7484 273.821 74.5529 271.092 72.1621C268.389 69.7712 267.038 66.7566 267.038 63.1183C267.038 58.6484 268.688 55.218 271.989 52.8272C275.315 50.4363 280.11 49.2278 286.373 49.2019H291.557V46.785C291.557 44.8359 291.051 43.2766 290.037 42.1072C289.05 40.9377 287.477 40.353 285.32 40.353C283.423 40.353 281.929 40.8078 280.837 41.7174C279.772 42.6269 279.239 43.8744 279.239 45.4596H267.974C267.974 43.0168 268.727 40.7558 270.234 38.6768C271.742 36.5978 273.873 34.9735 276.627 33.8041C279.382 32.6087 282.475 32.0109 285.905 32.0109C291.103 32.0109 295.222 33.3233 298.262 35.9481C301.329 38.5469 302.862 42.2111 302.862 46.9409V65.2233C302.888 69.2254 303.447 72.253 304.538 74.3061V74.9688H293.156ZM283.839 67.1334C285.502 67.1334 287.036 66.7696 288.439 66.0419C289.842 65.2883 290.882 64.2878 291.557 63.0404V55.7898H287.347C281.708 55.7898 278.706 57.7388 278.343 61.637L278.304 62.2997C278.304 63.703 278.797 64.8595 279.785 65.7691C280.773 66.6786 282.124 67.1334 283.839 67.1334ZM321.885 32.7906L322.236 37.6633C325.251 33.8951 329.292 32.0109 334.359 32.0109C338.829 32.0109 342.156 33.3233 344.339 35.9481C346.522 38.5729 347.639 42.497 347.691 47.7206V74.9688H336.425V47.9934C336.425 45.6026 335.906 43.8744 334.866 42.8089C333.827 41.7174 332.098 41.1716 329.682 41.1716C326.511 41.1716 324.133 42.523 322.548 45.2257V74.9688H311.282V32.7906H321.885ZM354.513 53.5678C354.513 46.9929 355.981 41.7564 358.918 37.8582C361.88 33.96 365.921 32.0109 371.041 32.0109C375.147 32.0109 378.539 33.5442 381.215 36.6108V15.0929H392.52V74.9688H382.346L381.8 70.4859C378.993 73.9942 375.381 75.7484 370.963 75.7484C365.999 75.7484 362.01 73.7993 358.996 69.9011C356.007 65.977 354.513 60.5325 354.513 53.5678ZM365.779 54.3864C365.779 58.3366 366.467 61.3641 367.845 63.4692C369.222 65.5742 371.223 66.6267 373.848 66.6267C377.33 66.6267 379.786 65.1584 381.215 62.2217V45.5766C379.812 42.6399 377.382 41.1716 373.926 41.1716C368.494 41.1716 365.779 45.5766 365.779 54.3864ZM413.141 74.9688H401.837V32.7906H413.141V74.9688ZM401.174 21.8757C401.174 20.1865 401.733 18.7961 402.85 17.7047C403.994 16.6132 405.54 16.0674 407.489 16.0674C409.412 16.0674 410.945 16.6132 412.089 17.7047C413.232 18.7961 413.804 20.1865 413.804 21.8757C413.804 23.5909 413.219 24.9942 412.05 26.0857C410.906 27.1772 409.386 27.723 407.489 27.723C405.592 27.723 404.059 27.1772 402.889 26.0857C401.746 24.9942 401.174 23.5909 401.174 21.8757ZM420.704 53.5678C420.704 46.9929 422.172 41.7564 425.109 37.8582C428.071 33.96 432.112 32.0109 437.232 32.0109C441.338 32.0109 444.729 33.5442 447.406 36.6108V15.0929H458.711V74.9688H448.537L447.991 70.4859C445.184 73.9942 441.572 75.7484 437.154 75.7484C432.19 75.7484 428.201 73.7993 425.187 69.9011C422.198 65.977 420.704 60.5325 420.704 53.5678ZM431.969 54.3864C431.969 58.3366 432.658 61.3641 434.035 63.4692C435.413 65.5742 437.414 66.6267 440.039 66.6267C443.521 66.6267 445.977 65.1584 447.406 62.2217V45.5766C446.003 42.6399 443.573 41.1716 440.117 41.1716C434.685 41.1716 431.969 45.5766 431.969 54.3864ZM479.332 74.9688H468.028V32.7906H479.332V74.9688ZM467.365 21.8757C467.365 20.1865 467.924 18.7961 469.041 17.7047C470.184 16.6132 471.731 16.0674 473.68 16.0674C475.603 16.0674 477.136 16.6132 478.28 17.7047C479.423 18.7961 479.995 20.1865 479.995 21.8757C479.995 23.5909 479.41 24.9942 478.241 26.0857C477.097 27.1772 475.577 27.723 473.68 27.723C471.783 27.723 470.249 27.1772 469.08 26.0857C467.937 24.9942 467.365 23.5909 467.365 21.8757ZM513.09 74.9688C512.571 73.9552 512.194 72.6948 511.96 71.1875C509.231 74.2281 505.684 75.7484 501.318 75.7484C497.186 75.7484 493.755 74.5529 491.027 72.1621C488.324 69.7712 486.973 66.7566 486.973 63.1183C486.973 58.6484 488.623 55.218 491.923 52.8272C495.25 50.4363 500.044 49.2278 506.308 49.2019H511.492V46.785C511.492 44.8359 510.985 43.2766 509.972 42.1072C508.984 40.9377 507.412 40.353 505.255 40.353C503.358 40.353 501.864 40.8078 500.772 41.7174C499.707 42.6269 499.174 43.8744 499.174 45.4596H487.908C487.908 43.0168 488.662 40.7558 490.169 38.6768C491.676 36.5978 493.807 34.9735 496.562 33.8041C499.317 32.6087 502.409 32.0109 505.84 32.0109C511.037 32.0109 515.156 33.3233 518.197 35.9481C521.264 38.5469 522.797 42.2111 522.797 46.9409V65.2233C522.823 69.2254 523.382 72.253 524.473 74.3061V74.9688H513.09ZM503.774 67.1334C505.437 67.1334 506.97 66.7696 508.374 66.0419C509.777 65.2883 510.816 64.2878 511.492 63.0404V55.7898H507.282C501.643 55.7898 498.641 57.7388 498.277 61.637L498.238 62.2997C498.238 63.703 498.732 64.8595 499.72 65.7691C500.707 66.6786 502.059 67.1334 503.774 67.1334ZM544.938 22.4214V32.7906H552.15V41.0547H544.938V62.1048C544.938 63.6641 545.237 64.7815 545.835 65.4572C546.433 66.1329 547.576 66.4707 549.265 66.4707C550.513 66.4707 551.617 66.3798 552.579 66.1979V74.7349C550.37 75.4105 548.096 75.7484 545.757 75.7484C537.857 75.7484 533.829 71.7593 533.673 63.781V41.0547H527.514V32.7906H533.673V22.4214H544.938ZM577.839 75.7484C571.654 75.7484 566.612 73.8513 562.714 70.0571C558.842 66.2628 556.906 61.2082 556.906 54.8932V53.8017C556.906 49.5657 557.724 45.7845 559.362 42.458C560.999 39.1056 563.312 36.5328 566.3 34.7397C569.315 32.9205 572.745 32.0109 576.591 32.0109C582.361 32.0109 586.896 33.8301 590.196 37.4684C593.523 41.1067 595.186 46.2652 595.186 52.9441V57.5439H568.327C568.691 60.2986 569.783 62.5076 571.602 64.1708C573.447 65.834 575.773 66.6657 578.58 66.6657C582.92 66.6657 586.311 65.0934 588.754 61.9489L594.289 68.147C592.6 70.5378 590.313 72.409 587.428 73.7603C584.544 75.0857 581.347 75.7484 577.839 75.7484ZM576.553 41.1327C574.318 41.1327 572.498 41.8863 571.095 43.3936C569.718 44.9009 568.834 47.0579 568.444 49.8645H584.115V48.968C584.063 46.4731 583.387 44.55 582.088 43.1987C580.789 41.8213 578.943 41.1327 576.553 41.1327ZM624.461 63.3132C624.461 61.9359 623.772 60.8574 622.395 60.0777C621.044 59.2721 618.861 58.5575 615.846 57.9338C605.815 55.8287 600.799 51.5667 600.799 45.1478C600.799 41.4055 602.345 38.287 605.438 35.7922C608.556 33.2713 612.624 32.0109 617.639 32.0109C622.993 32.0109 627.268 33.2713 630.464 35.7922C633.687 38.313 635.298 41.5874 635.298 45.6155H624.032C624.032 44.0043 623.512 42.6789 622.473 41.6394C621.433 40.5739 619.809 40.0412 617.6 40.0412C615.703 40.0412 614.235 40.47 613.195 41.3276C612.156 42.1852 611.636 43.2766 611.636 44.602C611.636 45.8494 612.221 46.863 613.39 47.6426C614.586 48.3962 616.587 49.0589 619.393 49.6307C622.2 50.1764 624.565 50.8001 626.488 51.5018C632.439 53.6848 635.415 57.466 635.415 62.8454C635.415 66.6916 633.765 69.8102 630.464 72.2011C627.164 74.5659 622.902 75.7484 617.678 75.7484C614.144 75.7484 610.999 75.1247 608.245 73.8773C605.516 72.6039 603.372 70.8757 601.813 68.6927C600.253 66.4837 599.474 64.1059 599.474 61.5591H610.155C610.259 63.5601 610.999 65.0934 612.377 66.1589C613.754 67.2244 615.599 67.7571 617.912 67.7571C620.069 67.7571 621.693 67.3543 622.785 66.5487C623.902 65.7171 624.461 64.6386 624.461 63.3132ZM699.267 59.6489L704.802 32.7906H715.678L704.919 74.9688H695.486L687.494 48.4222L679.503 74.9688H670.109L659.35 32.7906H670.225L675.722 59.61L683.44 32.7906H691.587L699.267 59.6489ZM733.181 74.9688H721.876V32.7906H733.181V74.9688ZM721.213 21.8757C721.213 20.1865 721.772 18.7961 722.89 17.7047C724.033 16.6132 725.579 16.0674 727.529 16.0674C729.452 16.0674 730.985 16.6132 732.128 17.7047C733.272 18.7961 733.844 20.1865 733.844 21.8757C733.844 23.5909 733.259 24.9942 732.089 26.0857C730.946 27.1772 729.426 27.723 727.529 27.723C725.631 27.723 724.098 27.1772 722.929 26.0857C721.785 24.9942 721.213 23.5909 721.213 21.8757ZM754.387 74.9688H743.082V15.0929H754.387V74.9688ZM775.593 74.9688H764.288V15.0929H775.593V74.9688ZM249.535 148.269C249.535 155.026 248.093 160.302 245.208 164.096C242.324 167.864 238.295 169.748 233.124 169.748C228.55 169.748 224.899 167.994 222.17 164.486L221.663 168.969H211.528V109.093H222.794V130.572C225.393 127.531 228.81 126.011 233.046 126.011C238.192 126.011 242.22 127.908 245.13 131.702C248.067 135.47 249.535 140.785 249.535 147.646V148.269ZM238.269 147.451C238.269 143.189 237.594 140.083 236.242 138.134C234.891 136.159 232.877 135.172 230.2 135.172C226.614 135.172 224.145 136.64 222.794 139.577V156.222C224.171 159.184 226.666 160.666 230.278 160.666C233.917 160.666 236.307 158.872 237.451 155.286C237.997 153.571 238.269 150.959 238.269 147.451ZM275.926 169.748C269.741 169.748 264.699 167.851 260.801 164.057C256.929 160.263 254.993 155.208 254.993 148.893V147.802C254.993 143.566 255.811 139.784 257.448 136.458C259.086 133.106 261.399 130.533 264.387 128.74C267.402 126.921 270.832 126.011 274.678 126.011C280.448 126.011 284.983 127.83 288.283 131.468C291.609 135.107 293.273 140.265 293.273 146.944V151.544H266.414C266.778 154.299 267.87 156.508 269.689 158.171C271.534 159.834 273.86 160.666 276.666 160.666C281.006 160.666 284.398 159.093 286.841 155.949L292.376 162.147C290.687 164.538 288.4 166.409 285.515 167.76C282.631 169.086 279.434 169.748 275.926 169.748ZM274.639 135.133C272.404 135.133 270.585 135.886 269.182 137.394C267.805 138.901 266.921 141.058 266.531 143.865H282.202V142.968C282.15 140.473 281.474 138.55 280.175 137.199C278.875 135.821 277.03 135.133 274.639 135.133ZM344.027 168.969C343.507 167.955 343.13 166.695 342.896 165.188C340.168 168.228 336.62 169.748 332.254 169.748C328.122 169.748 324.692 168.553 321.963 166.162C319.26 163.771 317.909 160.757 317.909 157.118C317.909 152.648 319.559 149.218 322.86 146.827C326.186 144.436 330.981 143.228 337.244 143.202H342.429V140.785C342.429 138.836 341.922 137.277 340.908 136.107C339.921 134.938 338.348 134.353 336.191 134.353C334.294 134.353 332.8 134.808 331.709 135.717C330.643 136.627 330.11 137.874 330.11 139.46H318.845C318.845 137.017 319.598 134.756 321.106 132.677C322.613 130.598 324.744 128.974 327.499 127.804C330.253 126.609 333.346 126.011 336.776 126.011C341.974 126.011 346.093 127.323 349.133 129.948C352.2 132.547 353.733 136.211 353.733 140.941V159.223C353.759 163.225 354.318 166.253 355.409 168.306V168.969H344.027ZM334.71 161.133C336.373 161.133 337.907 160.77 339.31 160.042C340.713 159.288 341.753 158.288 342.429 157.04V149.79H338.219C332.579 149.79 329.578 151.739 329.214 155.637L329.175 156.3C329.175 157.703 329.669 158.86 330.656 159.769C331.644 160.679 332.995 161.133 334.71 161.133ZM386.088 137.355C384.555 137.147 383.203 137.043 382.034 137.043C377.772 137.043 374.978 138.485 373.653 141.37V168.969H362.387V126.791H373.029L373.341 131.819C375.602 127.947 378.733 126.011 382.736 126.011C383.983 126.011 385.152 126.18 386.244 126.518L386.088 137.355ZM415.246 137.355C413.713 137.147 412.362 137.043 411.192 137.043C406.93 137.043 404.137 138.485 402.811 141.37V168.969H391.545V126.791H402.187L402.499 131.819C404.76 127.947 407.892 126.011 411.894 126.011C413.141 126.011 414.311 126.18 415.402 126.518L415.246 137.355ZM432.593 168.969H421.288V126.791H432.593V168.969ZM420.626 115.876C420.626 114.186 421.185 112.796 422.302 111.705C423.445 110.613 424.992 110.067 426.941 110.067C428.864 110.067 430.397 110.613 431.541 111.705C432.684 112.796 433.256 114.186 433.256 115.876C433.256 117.591 432.671 118.994 431.502 120.086C430.358 121.177 428.838 121.723 426.941 121.723C425.044 121.723 423.51 121.177 422.341 120.086C421.198 118.994 420.626 117.591 420.626 115.876ZM457.697 155.208L465.533 126.791H477.305L463.077 168.969H452.318L438.09 126.791H449.862L457.697 155.208ZM494.184 168.969H482.88V126.791H494.184V168.969ZM482.217 115.876C482.217 114.186 482.776 112.796 483.893 111.705C485.037 110.613 486.583 110.067 488.532 110.067C490.455 110.067 491.988 110.613 493.132 111.705C494.275 112.796 494.847 114.186 494.847 115.876C494.847 117.591 494.262 118.994 493.093 120.086C491.949 121.177 490.429 121.723 488.532 121.723C486.635 121.723 485.101 121.177 483.932 120.086C482.789 118.994 482.217 117.591 482.217 115.876ZM513.87 126.791L514.221 131.663C517.235 127.895 521.276 126.011 526.344 126.011C530.814 126.011 534.14 127.323 536.323 129.948C538.506 132.573 539.624 136.497 539.676 141.721V168.969H528.41V141.993C528.41 139.603 527.89 137.874 526.851 136.809C525.811 135.717 524.083 135.172 521.666 135.172C518.496 135.172 516.118 136.523 514.533 139.226V168.969H503.267V126.791H513.87ZM546.615 147.568C546.615 141.097 548.148 135.886 551.214 131.936C554.307 127.986 558.465 126.011 563.689 126.011C568.314 126.011 571.914 127.596 574.486 130.767L574.954 126.791H585.167V167.565C585.167 171.256 584.323 174.465 582.634 177.194C580.97 179.923 578.619 182.002 575.578 183.431C572.537 184.86 568.977 185.575 564.897 185.575C561.804 185.575 558.79 184.951 555.853 183.704C552.917 182.482 550.695 180.897 549.187 178.948L554.177 172.087C556.984 175.232 560.388 176.804 564.39 176.804C567.379 176.804 569.705 175.998 571.368 174.387C573.031 172.802 573.863 170.541 573.863 167.604V165.343C571.264 168.28 567.847 169.748 563.611 169.748C558.543 169.748 554.437 167.773 551.292 163.823C548.174 159.847 546.615 154.585 546.615 148.036V147.568ZM557.88 148.386C557.88 152.207 558.647 155.208 560.18 157.391C561.713 159.548 563.818 160.627 566.495 160.627C569.926 160.627 572.381 159.34 573.863 156.767V139.031C572.355 136.458 569.926 135.172 566.573 135.172C563.87 135.172 561.739 136.276 560.18 138.485C558.647 140.694 557.88 143.994 557.88 148.386ZM636.584 157.313C636.584 155.936 635.896 154.857 634.518 154.078C633.167 153.272 630.984 152.557 627.969 151.934C617.938 149.829 612.922 145.567 612.922 139.148C612.922 135.406 614.469 132.287 617.561 129.792C620.68 127.271 624.747 126.011 629.762 126.011C635.116 126.011 639.391 127.271 642.587 129.792C645.81 132.313 647.421 135.587 647.421 139.616H636.155C636.155 138.004 635.636 136.679 634.596 135.639C633.557 134.574 631.932 134.041 629.724 134.041C627.826 134.041 626.358 134.47 625.319 135.328C624.279 136.185 623.759 137.277 623.759 138.602C623.759 139.849 624.344 140.863 625.513 141.643C626.709 142.396 628.71 143.059 631.517 143.631C634.323 144.176 636.688 144.8 638.611 145.502C644.563 147.685 647.538 151.466 647.538 156.845C647.538 160.692 645.888 163.81 642.587 166.201C639.287 168.566 635.025 169.748 629.801 169.748C626.267 169.748 623.123 169.125 620.368 167.877C617.639 166.604 615.495 164.876 613.936 162.693C612.377 160.484 611.597 158.106 611.597 155.559H622.278C622.382 157.56 623.123 159.093 624.5 160.159C625.877 161.224 627.722 161.757 630.035 161.757C632.192 161.757 633.817 161.354 634.908 160.549C636.026 159.717 636.584 158.639 636.584 157.313ZM653.074 147.49C653.074 143.306 653.879 139.577 655.49 136.302C657.102 133.028 659.415 130.494 662.429 128.701C665.47 126.908 668.991 126.011 672.993 126.011C678.684 126.011 683.323 127.752 686.91 131.234C690.522 134.717 692.536 139.447 692.952 145.424L693.03 148.308C693.03 154.779 691.224 159.977 687.611 163.901C683.999 167.799 679.152 169.748 673.071 169.748C666.99 169.748 662.13 167.799 658.492 163.901C654.88 160.003 653.074 154.701 653.074 147.997V147.49ZM664.339 148.308C664.339 152.311 665.093 155.377 666.6 157.508C668.107 159.613 670.264 160.666 673.071 160.666C675.8 160.666 677.931 159.626 679.464 157.547C680.997 155.442 681.764 152.09 681.764 147.49C681.764 143.566 680.997 140.525 679.464 138.368C677.931 136.211 675.774 135.133 672.993 135.133C670.238 135.133 668.107 136.211 666.6 138.368C665.093 140.499 664.339 143.813 664.339 148.308ZM698.214 147.49C698.214 143.306 699.02 139.577 700.631 136.302C702.242 133.028 704.555 130.494 707.57 128.701C710.611 126.908 714.132 126.011 718.134 126.011C723.825 126.011 728.464 127.752 732.05 131.234C735.663 134.717 737.677 139.447 738.093 145.424L738.171 148.308C738.171 154.779 736.364 159.977 732.752 163.901C729.14 167.799 724.293 169.748 718.212 169.748C712.131 169.748 707.271 167.799 703.633 163.901C700.02 160.003 698.214 154.701 698.214 147.997V147.49ZM709.48 148.308C709.48 152.311 710.234 155.377 711.741 157.508C713.248 159.613 715.405 160.666 718.212 160.666C720.941 160.666 723.072 159.626 724.605 157.547C726.138 155.442 726.905 152.09 726.905 147.49C726.905 143.566 726.138 140.525 724.605 138.368C723.072 136.211 720.915 135.133 718.134 135.133C715.379 135.133 713.248 136.211 711.741 138.368C710.234 140.499 709.48 143.813 709.48 148.308ZM755.478 126.791L755.829 131.663C758.844 127.895 762.885 126.011 767.953 126.011C772.422 126.011 775.749 127.323 777.932 129.948C780.115 132.573 781.232 136.497 781.284 141.721V168.969H770.019V141.993C770.019 139.603 769.499 137.874 768.459 136.809C767.42 135.717 765.692 135.172 763.275 135.172C760.104 135.172 757.726 136.523 756.141 139.226V168.969H744.875V126.791H755.478Z" fill="#2E2F2F"/>
</svg>
