<svg width="32" height="24" viewBox="0 0 32 24" fill="none" xmlns="http://www.w3.org/2000/svg">
<path fill-rule="evenodd" clip-rule="evenodd" d="M30 2H14C14 0.9 13.1 0 12 0H4C2.9 0 2 0.9 2 2C0.9 2 0 2.9 0 4V22C0 23.1 0.9 24 2 24H30C31.1 24 32 23.1 32 22V4C32 2.9 31.1 2 30 2ZM12 6H4V4H12V6ZM21 20C17.12 20 14 16.88 14 13C14 9.12 17.12 6 21 6C24.88 6 28 9.12 28 13C28 16.88 24.88 20 21 20ZM26 13C26 15.76 23.74 18 21 18C18.26 18 16 15.74 16 13C16 10.26 18.26 8 21 8C23.74 8 26 10.26 26 13Z" fill="white"/>
</svg>
