<svg width="100" height="42" viewBox="0 0 100 42" fill="none" xmlns="http://www.w3.org/2000/svg">
<path fill-rule="evenodd" clip-rule="evenodd" d="M16.2571 24.2485C19.3363 29.5818 27.0343 29.5818 30.1135 24.2485L32.3177 20.4308C32.6568 19.8433 32.912 19.2396 33.0892 18.6305H46.3689C46.3689 24.7794 43.9263 30.6765 39.5784 35.0244C35.2304 39.3723 29.3334 41.815 23.1845 41.815C17.0356 41.815 11.1385 39.3723 6.79058 35.0244C2.44264 30.6765 0 24.7794 0 18.6305L13.2815 18.6305C13.4587 19.2396 13.7138 19.8433 14.053 20.4308L16.2571 24.2485Z" fill="#2E2F2F"/>
<circle cx="7.17307" cy="6.32151" r="6.32151" fill="#2E2F2F"/>
<path fill-rule="evenodd" clip-rule="evenodd" d="M35.2904 0C34.4246 0 33.7227 0.701899 33.7227 1.56773V11.0753C33.7227 11.9411 34.4246 12.643 35.2904 12.643H44.7979C45.6638 12.643 46.3657 11.9411 46.3657 11.0753V1.56773C46.3657 0.701899 45.6638 0 44.7979 0H35.2904ZM40.0442 1.2643C37.2511 1.2643 34.987 3.52849 34.987 6.32151C34.987 9.11453 37.2511 11.3787 40.0442 11.3787C42.8372 11.3787 45.1014 9.11453 45.1014 6.32151C45.1014 3.52849 42.8372 1.2643 40.0442 1.2643Z" fill="#2E2F2F"/>
<path d="M46.3672 32.2751C46.3672 30.6487 46.6221 29.2407 47.1318 28.0513C47.6659 26.8618 48.3698 25.8787 49.2437 25.1019C50.1419 24.3251 51.1614 23.7547 52.3023 23.3906C53.4675 23.0022 54.6812 22.808 55.9435 22.808C57.1815 22.808 58.371 23.0022 59.5119 23.3906C60.6771 23.7547 61.6966 24.3251 62.5705 25.1019C63.4444 25.8787 64.1483 26.8618 64.6824 28.0513C65.2164 29.2407 65.4834 30.6487 65.4834 32.2751C65.4834 33.9015 65.2164 35.3215 64.6824 36.5353C64.1483 37.7247 63.4444 38.7078 62.5705 39.4846C61.6966 40.2614 60.6771 40.844 59.5119 41.2324C58.371 41.6208 57.1815 41.815 55.9435 41.815C54.6812 41.815 53.4675 41.6208 52.3023 41.2324C51.1614 40.844 50.1419 40.2614 49.2437 39.4846C48.3698 38.7078 47.6659 37.7247 47.1318 36.5353C46.6221 35.3215 46.3672 33.9015 46.3672 32.2751ZM55.9435 37.5184C57.0601 37.5184 57.9826 37.1179 58.7108 36.3168C59.4633 35.5157 59.8396 34.1685 59.8396 32.2751C59.8396 31.3284 59.7304 30.5273 59.5119 29.8719C59.3177 29.1922 59.0385 28.6582 58.6744 28.2698C58.3346 27.8571 57.9219 27.5658 57.4364 27.3959C56.9752 27.2017 56.4776 27.1046 55.9435 27.1046C55.4095 27.1046 54.8997 27.2017 54.4142 27.3959C53.9287 27.5658 53.5039 27.8571 53.1398 28.2698C52.8 28.6582 52.5208 29.1922 52.3023 29.8719C52.1081 30.5273 52.011 31.3284 52.011 32.2751C52.011 34.1685 52.3751 35.5157 53.1034 36.3168C53.8559 37.1179 54.8026 37.5184 55.9435 37.5184Z" fill="#2E2F2F"/>
<path d="M66.8395 23.3177H69.8253V18.8027H75.3599V23.3177H79.2924V27.5415H75.3599V34.8239C75.3599 35.6735 75.5177 36.2318 75.8332 36.4988C76.1731 36.7416 76.7921 36.863 77.6902 36.863H79.2924V41.378H75.7968C74.6802 41.378 73.7456 41.3174 72.9931 41.196C72.2406 41.0503 71.6216 40.7955 71.1361 40.4313C70.6749 40.0672 70.335 39.5574 70.1166 38.902C69.9224 38.2223 69.8253 37.3485 69.8253 36.2804V27.5415H66.8395V23.3177Z" fill="#2E2F2F"/>
<path d="M81.0367 32.2387C81.0367 30.8065 81.2916 29.5078 81.8014 28.3426C82.3111 27.1774 83.003 26.1821 83.8768 25.3568C84.775 24.5315 85.8067 23.9003 86.9719 23.4634C88.1613 23.0265 89.4114 22.808 90.7223 22.808C92.203 22.808 93.5381 23.0871 94.7276 23.6455C95.917 24.1795 96.9123 24.932 97.7134 25.903C98.5144 26.8497 99.1091 27.9906 99.4975 29.3257C99.9102 30.6608 100.068 32.1294 99.9709 33.7315H86.6077C86.6563 34.3627 86.8019 34.921 87.0447 35.4065C87.3117 35.8677 87.6273 36.2561 87.9914 36.5717C88.3798 36.8872 88.8167 37.13 89.3022 37.2999C89.7877 37.4456 90.2853 37.5184 90.7951 37.5184C91.6447 37.5184 92.3729 37.397 92.9798 37.1543C93.611 36.9115 94.0964 36.5838 94.4363 36.1711L98.8421 37.7733C97.8954 39.1569 96.706 40.1764 95.2738 40.8319C93.8658 41.4873 92.4215 41.815 90.9407 41.815C89.4843 41.815 88.1492 41.5965 86.9354 41.1596C85.7217 40.7226 84.6779 40.0915 83.804 39.2662C82.9301 38.4408 82.2504 37.4334 81.7649 36.244C81.2795 35.0545 81.0367 33.7194 81.0367 32.2387ZM86.6077 30.4545H94.8368C94.7883 29.2893 94.3877 28.4154 93.6352 27.8328C92.8827 27.226 91.9603 26.9225 90.8679 26.9225C89.8241 26.9225 88.8895 27.2017 88.0642 27.76C87.2631 28.3183 86.7777 29.2165 86.6077 30.4545Z" fill="#2E2F2F"/>
</svg>
